<?xml version="1.0" standalone="no"?>
<!DOCTYPE svg PUBLIC "-//W3C//DTD SVG 20010904//EN"
 "http://www.w3.org/TR/2001/REC-SVG-20010904/DTD/svg10.dtd">
<svg version="1.0" xmlns="http://www.w3.org/2000/svg"
 width="515.000000pt" height="515.000000pt" viewBox="0 0 515.000000 515.000000"
 preserveAspectRatio="xMidYMid meet">
<metadata>
Created by potrace 1.11, written by Peter Selinger 2001-2013
</metadata>
<g transform="translate(0.000000,515.000000) scale(0.100000,-0.100000)"
fill="#000000" stroke="none">
<path d="M2399 5126 c-2 -2 -38 -6 -79 -10 -72 -5 -94 -8 -170 -22 -19 -4 -42
-8 -50 -9 -46 -6 -93 -16 -100 -20 -4 -3 -24 -7 -44 -11 -20 -3 -63 -14 -94
-25 -31 -11 -57 -19 -57 -19 0 1 -7 -1 -15 -4 -8 -2 -40 -12 -70 -22 -30 -9
-66 -22 -80 -29 -14 -7 -61 -28 -105 -46 -44 -18 -92 -41 -107 -52 -16 -10
-28 -16 -28 -13 0 5 -91 -47 -185 -105 -16 -10 -37 -22 -45 -26 -8 -3 -17 -10
-20 -13 -3 -4 -28 -23 -57 -42 -47 -32 -95 -69 -178 -138 -126 -104 -345 -346
-436 -481 -67 -99 -119 -180 -119 -186 0 -2 -15 -30 -33 -61 -93 -160 -211
-479 -253 -687 -16 -80 -36 -207 -42 -272 -13 -141 -6 -479 12 -599 21 -138
23 -151 42 -233 9 -36 17 -73 19 -81 2 -8 16 -51 30 -95 15 -44 28 -87 30 -95
19 -81 201 -454 250 -510 7 -8 16 -25 19 -37 4 -13 10 -23 14 -23 4 0 18 -18
32 -40 14 -22 28 -40 32 -40 5 0 8 -5 8 -11 0 -6 6 -17 13 -24 6 -8 23 -29 37
-46 14 -18 33 -40 42 -51 10 -10 18 -20 18 -23 0 -6 143 -157 179 -189 13 -12
49 -45 80 -73 31 -29 59 -53 63 -53 4 0 15 -8 25 -19 23 -23 155 -119 208
-151 22 -13 42 -26 45 -29 3 -4 16 -12 29 -19 13 -8 40 -23 60 -34 166 -94
368 -177 576 -236 61 -18 95 -26 200 -46 11 -2 31 -7 45 -10 14 -3 45 -8 70
-10 25 -3 68 -9 95 -13 69 -9 445 -9 530 0 269 31 549 106 773 208 35 16 68
29 73 29 5 0 9 4 9 9 0 5 12 12 26 15 14 4 43 18 65 31 21 14 41 25 44 25 11
0 191 117 219 143 11 9 23 17 27 17 4 0 14 6 21 13 7 7 28 23 45 35 90 63 423
393 423 418 0 3 9 14 20 26 11 12 32 40 47 62 15 23 30 43 33 46 6 6 43 63 88
135 17 28 36 55 42 62 5 7 10 16 10 22 0 5 15 36 33 68 31 54 138 303 152 353
0 3 13 43 27 90 14 47 29 99 33 115 4 17 9 39 12 50 6 26 41 223 48 272 12 84
12 471 0 573 -15 122 -24 180 -29 189 -2 3 -7 23 -10 43 -12 77 -65 277 -85
323 -5 11 -24 58 -42 105 -39 102 -141 309 -181 367 -15 23 -28 44 -28 47 0 6
-78 123 -95 143 -5 6 -35 44 -65 84 -58 78 -295 321 -369 379 -24 19 -49 41
-56 48 -8 6 -18 12 -23 12 -6 0 -12 4 -14 8 -4 12 -146 112 -157 112 -5 0 -11
4 -13 8 -4 11 -205 125 -211 121 -3 -2 -14 4 -24 14 -11 9 -23 14 -26 10 -4
-3 -7 -1 -7 5 0 7 -3 11 -7 10 -5 -1 -17 3 -29 9 -57 32 -310 123 -414 149
-29 7 -147 33 -174 38 -104 19 -148 26 -196 32 -62 7 -445 15 -451 10z"/>
</g>
</svg>
